<svg width="5276" height="1002" viewBox="0 0 5276 1002" fill="none" xmlns="http://www.w3.org/2000/svg">
<g clip-path="url(#clip0_190_90)">
<path d="M124.229 601.198C99.626 601.198 77.9682 595.826 59.2558 585.084C40.5435 573.995 25.9894 558.748 15.5936 539.343C5.19788 519.591 0 496.893 0 471.251C0 440.41 7.62356 413.381 22.8707 390.164C38.4643 366.946 60.4687 349.1 88.8838 336.625C117.645 324.151 151.258 317.913 189.723 317.913C207.395 317.913 221.776 319.126 232.865 321.552V310.636C232.865 284.3 228.014 264.721 218.311 251.9C208.608 238.732 193.881 232.148 174.129 232.148C142.249 232.148 121.804 248.954 112.794 282.567C110.022 292.27 104.304 296.428 95.641 295.042L24.9498 282.567C19.7519 281.528 16.1134 279.275 14.0343 275.81C12.3017 272.345 12.1284 267.667 13.5145 261.776C22.5242 226.43 41.583 199.055 70.6912 179.649C100.146 159.897 137.051 150.021 181.406 150.021C234.078 150.021 274.102 164.229 301.477 192.644C329.199 221.059 343.06 262.469 343.06 316.873V578.327C343.06 582.139 341.674 585.431 338.902 588.203C336.476 590.629 333.357 591.841 329.546 591.841H261.973C253.657 591.841 248.459 587.337 246.38 578.327L235.984 529.467H231.826C222.469 552.338 208.435 570.01 189.723 582.485C171.357 594.96 149.526 601.198 124.229 601.198ZM113.314 458.776C113.314 477.141 117.992 491.869 127.348 502.958C137.051 513.7 150.046 519.071 166.332 519.071C187.817 519.071 204.277 509.542 215.712 490.483C227.147 471.077 232.865 443.355 232.865 407.317V379.768C223.162 378.035 213.979 377.169 205.316 377.169C176.901 377.169 154.377 384.619 137.744 399.52C121.457 414.074 113.314 433.826 113.314 458.776ZM407.514 172.892C407.514 169.08 408.727 165.962 411.152 163.536C413.925 160.764 417.217 159.378 421.028 159.378H489.64C493.452 159.378 496.571 160.591 498.997 163.016C501.769 165.442 503.501 168.734 504.194 172.892L514.59 223.831H518.749C528.105 199.921 541.446 181.729 558.772 169.254C576.445 156.432 597.237 150.021 621.147 150.021C646.79 150.021 668.794 156.779 687.16 170.293C705.872 183.808 720.253 203.04 730.302 227.99H734.461C749.708 201.654 766.861 182.075 785.92 169.254C804.979 156.432 826.29 150.021 849.854 150.021C875.496 150.021 897.674 156.952 916.386 170.813C935.445 184.674 949.999 204.426 960.049 230.069C970.098 255.712 975.122 286.033 975.122 321.032V578.327C975.122 582.139 973.736 585.431 970.964 588.203C968.539 590.629 965.42 591.841 961.608 591.841H878.442C874.63 591.841 871.338 590.629 868.566 588.203C866.14 585.431 864.927 582.139 864.927 578.327V329.348C864.927 304.052 860.076 284.647 850.373 271.132C840.671 257.618 826.636 250.86 808.271 250.86C788.172 250.86 772.752 258.83 762.009 274.771C751.614 290.711 746.416 313.755 746.416 343.902V578.327C746.416 582.139 745.03 585.431 742.257 588.203C739.832 590.629 736.713 591.841 732.901 591.841H649.735C645.923 591.841 642.631 590.629 639.859 588.203C637.433 585.431 636.221 582.139 636.221 578.327V329.348C636.221 304.052 631.369 284.647 621.667 271.132C611.964 257.618 597.93 250.86 579.564 250.86C559.465 250.86 544.045 258.83 533.303 274.771C522.907 290.711 517.709 313.755 517.709 343.902V578.327C517.709 582.139 516.323 585.431 513.551 588.203C511.125 590.629 508.006 591.841 504.194 591.841H421.028C417.217 591.841 413.925 590.629 411.152 588.203C408.727 585.431 407.514 582.139 407.514 578.327V172.892ZM1029.18 471.251C1029.18 440.41 1036.8 413.381 1052.05 390.164C1067.64 366.946 1089.65 349.1 1118.06 336.625C1146.83 324.151 1180.44 317.913 1218.9 317.913C1236.58 317.913 1250.96 319.126 1262.05 321.552V310.636C1262.05 284.3 1257.19 264.721 1247.49 251.9C1237.79 238.732 1223.06 232.148 1203.31 232.148C1171.43 232.148 1150.98 248.954 1141.97 282.567C1139.2 292.27 1133.48 296.428 1124.82 295.042L1054.13 282.567C1048.93 281.528 1045.29 279.275 1043.21 275.81C1041.48 272.345 1041.31 267.667 1042.69 261.776C1051.7 226.43 1070.76 199.055 1099.87 179.649C1129.33 159.897 1166.23 150.021 1210.59 150.021C1263.26 150.021 1303.28 164.229 1330.66 192.644C1358.38 221.059 1372.24 262.469 1372.24 316.873V578.327C1372.24 582.139 1370.85 585.431 1368.08 588.203C1365.66 590.629 1362.54 591.841 1358.73 591.841H1291.15C1282.84 591.841 1277.64 587.337 1275.56 578.327L1265.16 529.467H1261.01C1251.65 552.338 1237.62 570.01 1218.9 582.485C1200.54 594.96 1178.71 601.198 1153.41 601.198C1128.11 601.198 1107.15 595.826 1088.44 585.084C1069.72 573.995 1055.17 558.748 1044.77 539.343C1034.38 519.591 1029.18 496.893 1029.18 471.251ZM1142.49 458.776C1142.49 477.141 1147.17 491.869 1156.53 502.958C1166.23 513.7 1179.23 519.071 1195.51 519.071C1217 519.071 1233.46 509.542 1244.89 490.483C1256.33 471.077 1262.05 443.355 1262.05 407.317V379.768C1252.34 378.035 1243.16 377.169 1234.5 377.169C1206.08 377.169 1183.56 384.619 1166.92 399.52C1150.64 414.074 1142.49 433.826 1142.49 458.776ZM1428.38 515.433C1428.38 507.809 1430.46 501.225 1434.62 495.681L1612.38 246.702H1446.05C1442.24 246.702 1438.95 245.489 1436.17 243.064C1433.75 240.291 1432.54 236.999 1432.54 233.188V172.892C1432.54 169.08 1433.75 165.962 1436.17 163.536C1438.95 160.764 1442.24 159.378 1446.05 159.378H1719.46C1723.27 159.378 1726.39 160.764 1728.82 163.536C1731.59 165.962 1732.97 169.08 1732.97 172.892V235.787C1732.97 243.41 1730.89 249.994 1726.74 255.538L1565.6 476.968C1575.3 475.236 1585.18 474.369 1595.23 474.369C1620.18 474.369 1643.05 476.622 1663.84 481.127C1684.98 485.285 1706.81 492.215 1729.34 501.918C1737.31 505.383 1741.29 511.274 1741.29 519.591V579.366C1741.29 584.911 1739.56 588.723 1736.09 590.802C1732.63 592.534 1728.3 592.361 1723.1 590.282C1697.11 580.579 1674.06 573.822 1653.97 570.01C1634.21 565.852 1612.56 563.773 1588.99 563.773C1565.43 563.773 1542.9 565.852 1520.38 570.01C1498.2 574.169 1473.6 580.926 1446.57 590.282C1441.37 592.015 1437.04 592.015 1433.58 590.282C1430.11 588.203 1428.38 584.564 1428.38 579.366V515.433ZM1764.16 375.61C1764.16 333.333 1772.3 295.042 1788.59 260.736C1804.88 226.084 1827.23 199.055 1855.64 179.649C1884.41 159.897 1916.29 150.021 1951.28 150.021C1986.28 150.021 2018.51 159.897 2046.93 179.649C2075.69 199.055 2098.21 226.084 2114.5 260.736C2131.13 295.042 2139.45 333.333 2139.45 375.61C2139.45 417.886 2131.13 456.35 2114.5 491.003C2098.21 525.309 2075.69 552.338 2046.93 572.089C2018.51 591.495 1986.63 601.198 1951.28 601.198C1915.94 601.198 1884.41 591.495 1855.64 572.089C1827.23 552.338 1804.88 525.309 1788.59 491.003C1772.3 456.35 1764.16 417.886 1764.16 375.61ZM1878.51 375.61C1878.51 419.618 1884.75 453.578 1897.23 477.488C1909.7 501.052 1927.72 512.834 1951.28 512.834C1974.85 512.834 1993.04 501.052 2005.86 477.488C2018.68 453.578 2025.09 419.618 2025.09 375.61C2025.09 331.601 2018.68 297.815 2005.86 274.251C1993.04 250.341 1974.85 238.385 1951.28 238.385C1927.72 238.385 1909.7 250.341 1897.23 274.251C1884.75 297.815 1878.51 331.601 1878.51 375.61ZM2195.58 172.892C2195.58 169.08 2196.8 165.962 2199.22 163.536C2202 160.764 2205.29 159.378 2209.1 159.378H2277.71C2281.52 159.378 2284.64 160.591 2287.07 163.016C2289.84 165.442 2291.57 168.734 2292.27 172.892L2302.66 223.831H2306.82C2316.18 200.268 2329.86 182.075 2347.88 169.254C2366.25 156.432 2387.73 150.021 2412.34 150.021C2438.67 150.021 2461.37 156.952 2480.43 170.813C2499.83 184.674 2514.73 204.426 2525.13 230.069C2535.53 255.712 2540.72 286.033 2540.72 321.032V578.327C2540.72 582.139 2539.34 585.431 2536.57 588.203C2534.14 590.629 2531.02 591.841 2527.21 591.841H2444.04C2440.23 591.841 2436.94 590.629 2434.17 588.203C2431.74 585.431 2430.53 582.139 2430.53 578.327V329.348C2430.53 304.052 2425.33 284.647 2414.94 271.132C2404.54 257.618 2389.81 250.86 2370.75 250.86C2349.62 250.86 2333.5 258.83 2322.41 274.771C2311.32 290.711 2305.78 313.755 2305.78 343.902V578.327C2305.78 582.139 2304.39 585.431 2301.62 588.203C2299.2 590.629 2296.08 591.841 2292.27 591.841H2209.1C2205.29 591.841 2202 590.629 2199.22 588.203C2196.8 585.431 2195.58 582.139 2195.58 578.327V172.892Z" fill="#161D26"/>
<path d="M1443.97 677.608C1436.69 684.539 1434.79 691.816 1438.25 699.44C1440.68 704.984 1445.36 708.103 1452.29 708.796C1459.22 709.835 1469.09 709.142 1481.92 706.717C1502.71 702.212 1524.36 699.093 1546.89 697.36C1569.41 695.974 1588.99 696.321 1605.63 698.4C1622.26 700.826 1632.65 704.984 1636.81 710.875C1643.05 720.231 1640.8 739.983 1630.06 770.131C1619.66 800.278 1605.45 829.56 1587.43 857.975C1580.5 869.41 1576.34 878.42 1574.96 885.004C1573.57 891.588 1575.3 897.132 1580.16 901.637C1583.27 904.756 1586.74 906.315 1590.55 906.315C1600.6 906.315 1615.15 897.479 1634.21 879.806C1668.52 850.005 1692.6 814.659 1706.46 773.769C1714.09 752.631 1718.77 730.454 1720.5 707.236C1722.23 684.019 1719.63 667.386 1712.7 657.337C1706.12 647.634 1691.56 639.664 1669.04 633.426C1646.86 627.189 1624.51 624.07 1601.99 624.07C1557.98 624.07 1516.22 634.466 1476.72 655.258C1462.16 663.228 1451.25 670.678 1443.97 677.608ZM289.002 651.619C282.418 656.817 281.032 665.48 284.844 677.608C288.309 688.351 296.452 701.692 309.274 717.632C360.906 781.393 422.414 834.411 493.798 876.687C565.183 918.963 641.591 950.151 723.025 970.249C804.805 990.694 888.318 1000.92 973.563 1000.92C1082.72 1000.92 1186.68 984.977 1285.44 953.096C1384.2 921.562 1466.67 877.207 1532.85 820.03C1556.07 799.585 1567.68 783.299 1567.68 771.17C1567.68 766.666 1565.77 762.161 1561.96 757.656C1556.77 752.458 1550.53 750.725 1543.25 752.458C1535.97 754.191 1525.75 758.522 1512.58 765.453C1449.17 798.719 1371.89 825.228 1280.76 844.98C1189.97 865.079 1095.19 875.128 996.433 875.128C874.11 875.128 755.945 858.495 641.938 825.228C527.931 791.962 426.919 739.983 338.902 669.292C326.08 659.243 315.684 652.832 307.714 650.06C300.091 647.288 293.853 647.807 289.002 651.619Z" fill="#161D26"/>
</g>
<path d="M5099.62 605.567C5059.79 605.567 5024.98 596.255 4995.18 577.631C4965.38 558.72 4942.32 531.93 4925.99 497.261C4909.94 462.592 4901.92 422.192 4901.92 376.062C4901.92 329.932 4909.65 289.676 4925.13 255.293C4940.89 220.624 4963.09 193.834 4991.74 174.923C5020.4 156.013 5053.77 146.558 5091.88 146.558C5129.13 146.558 5161.65 155.87 5189.44 174.494C5217.24 193.118 5238.58 219.334 5253.48 253.144C5268.38 286.667 5275.83 325.777 5275.83 370.475C5275.83 380.217 5275.54 387.523 5274.97 392.394C5274.68 398.698 5270.96 401.849 5263.8 401.849H4986.59C4990.02 443.682 5001.77 476.202 5021.83 499.41C5041.88 522.332 5068.67 533.793 5102.2 533.793C5124.26 533.793 5143.46 528.635 5159.79 518.321C5176.12 507.719 5189.01 492.39 5198.47 472.334C5200.76 468.036 5203.48 465.887 5206.63 465.887C5208.35 465.887 5210.22 466.46 5212.22 467.606L5258.21 490.815C5261.93 492.82 5263.8 495.685 5263.8 499.41C5263.8 501.129 5263.37 503.135 5262.51 505.427C5246.75 538.091 5225.12 563.018 5197.61 580.21C5170.1 597.114 5137.44 605.567 5099.62 605.567ZM5196.75 341.68C5192.74 301.566 5181.71 270.622 5163.66 248.846C5145.61 227.07 5121.68 216.183 5091.88 216.183C5061.8 216.183 5037.59 227.07 5019.25 248.846C5001.2 270.622 4990.17 301.566 4986.16 341.68H5196.75Z" fill="#161D26"/>
<path d="M4700.99 605.567C4661.74 605.567 4627.5 596.255 4598.28 577.631C4569.05 559.007 4546.56 532.36 4530.8 497.691C4515.04 463.022 4507.16 422.479 4507.16 376.062C4507.16 329.646 4514.9 289.246 4530.37 254.863C4546.13 220.194 4568.48 193.547 4597.42 174.923C4626.36 156.013 4660.31 146.558 4699.28 146.558C4738.82 146.558 4771.77 156.729 4798.13 177.072C4824.77 197.415 4844.69 227.644 4857.87 267.757C4858.15 268.616 4858.3 270.049 4858.3 272.055C4858.3 276.639 4856.15 279.647 4851.85 281.08L4802.85 300.85C4801.71 301.423 4800.13 301.71 4798.13 301.71C4794.4 301.71 4791.68 299.274 4789.96 294.403C4774.2 245.121 4744.83 220.48 4701.85 220.48C4679.22 220.48 4659.74 226.641 4643.4 238.961C4627.36 251.282 4615.04 269.189 4606.44 292.684C4597.85 315.892 4593.55 343.685 4593.55 376.062C4593.55 425.058 4603.15 463.308 4622.34 490.815C4641.83 518.034 4668.9 531.644 4703.57 531.644C4748.27 531.644 4778.07 507.003 4792.97 457.721C4794.97 452.564 4797.84 449.985 4801.56 449.985C4802.14 449.985 4803.57 450.272 4805.86 450.845L4854.86 468.466C4859.73 470.185 4862.16 473.337 4862.16 477.921C4862.16 478.494 4861.88 479.927 4861.3 482.219C4848.98 523.192 4829.36 553.993 4802.42 574.622C4775.49 595.252 4741.68 605.567 4700.99 605.567Z" fill="#161D26"/>
<path d="M4100.11 593.533C4096.96 593.533 4094.38 592.673 4092.38 590.954C4090.66 588.949 4089.8 586.37 4089.8 583.218V168.906C4089.8 165.755 4090.66 163.319 4092.38 161.6C4094.38 159.594 4096.96 158.592 4100.11 158.592H4145.24C4151.54 158.592 4155.13 161.743 4155.98 168.047L4164.58 226.068C4178.33 200.854 4196.81 181.37 4220.02 167.617C4243.52 153.577 4269.88 146.558 4299.1 146.558C4326.9 146.558 4351.82 153.004 4373.89 165.898C4395.95 178.505 4413.14 196.126 4425.46 218.761C4438.07 241.11 4444.37 266.181 4444.37 293.974V583.218C4444.37 586.37 4443.37 588.949 4441.36 590.954C4439.64 592.673 4437.21 593.533 4434.05 593.533H4370.02C4366.87 593.533 4364.29 592.673 4362.28 590.954C4360.56 588.949 4359.7 586.37 4359.7 583.218V310.735C4359.7 282.369 4352.54 260.45 4338.21 244.978C4324.17 229.506 4304.12 221.77 4278.04 221.77C4244.81 221.77 4219.16 235.093 4201.11 261.74C4183.35 288.386 4174.47 326.351 4174.47 375.632V583.218C4174.47 586.37 4173.46 588.949 4171.46 590.954C4169.74 592.673 4167.3 593.533 4164.15 593.533H4100.11Z" fill="#161D26"/>
<path d="M3848.65 605.567C3808.82 605.567 3774.01 596.255 3744.21 577.631C3714.41 558.72 3691.35 531.93 3675.02 497.261C3658.97 462.592 3650.95 422.192 3650.95 376.062C3650.95 329.932 3658.68 289.676 3674.16 255.293C3689.91 220.624 3712.12 193.834 3740.77 174.923C3769.42 156.013 3802.8 146.558 3840.91 146.558C3878.16 146.558 3910.68 155.87 3938.47 174.494C3966.27 193.118 3987.61 219.334 4002.51 253.144C4017.41 286.667 4024.86 325.777 4024.86 370.475C4024.86 380.217 4024.57 387.523 4024 392.394C4023.71 398.698 4019.99 401.849 4012.83 401.849H3735.61C3739.05 443.682 3750.8 476.202 3770.86 499.41C3790.91 522.332 3817.7 533.793 3851.23 533.793C3873.29 533.793 3892.49 528.635 3908.82 518.321C3925.15 507.719 3938.04 492.39 3947.5 472.334C3949.79 468.036 3952.51 465.887 3955.66 465.887C3957.38 465.887 3959.25 466.46 3961.25 467.606L4007.24 490.815C4010.96 492.82 4012.83 495.685 4012.83 499.41C4012.83 501.129 4012.4 503.135 4011.54 505.427C3995.78 538.091 3974.14 563.018 3946.64 580.21C3919.13 597.114 3886.47 605.567 3848.65 605.567ZM3945.78 341.68C3941.77 301.566 3930.74 270.622 3912.69 248.846C3894.63 227.07 3870.71 216.183 3840.91 216.183C3810.83 216.183 3786.62 227.07 3768.28 248.846C3750.23 270.622 3739.2 301.566 3735.18 341.68H3945.78Z" fill="#161D26"/>
<path d="M3509.56 593.533C3506.41 593.533 3503.83 592.673 3501.82 590.954C3500.1 588.948 3499.24 586.37 3499.24 583.218V168.906C3499.24 165.754 3500.1 163.319 3501.82 161.6C3503.83 159.594 3506.41 158.591 3509.56 158.591H3573.6C3576.75 158.591 3579.18 159.594 3580.9 161.6C3582.91 163.319 3583.91 165.754 3583.91 168.906V583.218C3583.91 586.37 3582.91 588.948 3580.9 590.954C3579.18 592.673 3576.75 593.533 3573.6 593.533H3509.56ZM3487.21 51.5751C3487.21 36.3894 3492.22 24.0689 3502.25 14.6136C3512.57 4.87185 3525.6 0.000976562 3541.36 0.000976562C3557.41 0.000976562 3570.44 4.87185 3580.47 14.6136C3590.79 24.0689 3595.95 36.3894 3595.95 51.5751C3595.95 66.4742 3590.79 78.7947 3580.47 88.5365C3570.44 97.9917 3557.41 102.719 3541.36 102.719C3525.6 102.719 3512.57 97.9917 3502.25 88.5365C3492.22 78.7947 3487.21 66.4742 3487.21 51.5751Z" fill="#161D26"/>
<path d="M3277.3 605.567C3238.05 605.567 3203.81 596.255 3174.58 577.631C3145.36 559.007 3122.87 532.36 3107.11 497.691C3091.35 463.022 3083.47 422.479 3083.47 376.062C3083.47 329.646 3091.2 289.246 3106.68 254.863C3122.44 220.194 3144.78 193.547 3173.72 174.923C3202.66 156.013 3236.62 146.558 3275.58 146.558C3315.12 146.558 3348.07 156.729 3374.43 177.072C3401.08 197.415 3420.99 227.644 3434.17 267.757C3434.46 268.616 3434.6 270.049 3434.6 272.055C3434.6 276.639 3432.45 279.647 3428.16 281.08L3379.16 300.85C3378.01 301.423 3376.44 301.71 3374.43 301.71C3370.71 301.71 3367.99 299.274 3366.27 294.403C3350.51 245.121 3321.14 220.48 3278.16 220.48C3255.53 220.48 3236.04 226.641 3219.71 238.961C3203.67 251.282 3191.34 269.189 3182.75 292.684C3174.15 315.892 3169.86 343.685 3169.86 376.062C3169.86 425.058 3179.45 463.308 3198.65 490.815C3218.13 518.034 3245.21 531.644 3279.88 531.644C3324.58 531.644 3354.38 507.003 3369.28 457.721C3371.28 452.564 3374.15 449.985 3377.87 449.985C3378.44 449.985 3379.88 450.272 3382.17 450.845L3431.16 468.466C3436.03 470.185 3438.47 473.337 3438.47 477.921C3438.47 478.494 3438.18 479.927 3437.61 482.219C3425.29 523.192 3405.66 553.993 3378.73 574.622C3351.8 595.252 3317.99 605.567 3277.3 605.567Z" fill="#161D26"/>
<path d="M2871.79 605.567C2790.99 605.567 2734.4 571.9 2702.02 504.568C2701.16 502.848 2700.73 501.129 2700.73 499.41C2700.73 495.972 2702.74 493.107 2706.75 490.815L2751.02 468.036C2753.02 466.89 2754.89 466.317 2756.61 466.317C2759.76 466.317 2762.48 468.466 2764.77 472.764C2784.54 514.882 2819.07 535.942 2868.35 535.942C2894.71 535.942 2915.77 530.355 2931.53 519.18C2947.57 507.719 2955.6 492.534 2955.6 473.623C2955.6 460.443 2951.16 449.699 2942.27 441.389C2933.68 433.08 2922.79 426.49 2909.61 421.619C2896.72 416.462 2878.81 410.875 2855.89 404.858C2825.23 396.549 2800.3 388.383 2781.1 380.36C2761.91 372.051 2745.43 359.587 2731.68 342.969C2717.93 326.351 2711.05 304.288 2711.05 276.782C2711.05 250.422 2717.5 227.5 2730.39 208.017C2743.28 188.247 2761.62 173.061 2785.4 162.46C2809.47 151.858 2837.55 146.558 2869.64 146.558C2908.61 146.558 2942.42 154.867 2971.07 171.485C2999.72 187.817 3021.93 212.171 3037.68 244.548C3038.54 246.267 3038.97 247.987 3038.97 249.706C3038.97 252.858 3036.97 255.579 3032.96 257.872L2989.55 280.22C2987.54 281.367 2985.82 281.94 2984.39 281.94C2980.95 281.94 2978.09 279.791 2975.8 275.493C2966.05 256.009 2952.3 241.11 2934.54 230.795C2917.06 220.48 2896.43 215.323 2872.65 215.323C2848.01 215.323 2828.38 220.624 2813.77 231.225C2799.44 241.826 2792.28 256.009 2792.28 273.774C2792.28 286.381 2796.43 296.695 2804.74 304.718C2813.34 312.741 2823.94 319.187 2836.55 324.058C2849.44 328.929 2867.49 334.516 2890.7 340.82C2921.64 349.129 2946.86 357.582 2966.34 366.177C2986.11 374.486 3002.87 387.093 3016.63 403.998C3030.67 420.616 3037.68 442.679 3037.68 470.185C3037.68 497.405 3030.81 521.186 3017.06 541.529C3003.59 561.872 2984.25 577.631 2959.03 588.805C2934.11 599.98 2905.02 605.567 2871.79 605.567Z" fill="#161D26"/>
<defs>
<clipPath id="clip0_190_90">
<rect width="2540.72" height="851.326" fill="white" transform="translate(0 150.022)"/>
</clipPath>
</defs>
</svg>
