<?xml version="1.0" standalone="no"?>
<!DOCTYPE svg PUBLIC "-//W3C//DTD SVG 20010904//EN"
 "http://www.w3.org/TR/2001/REC-SVG-20010904/DTD/svg10.dtd">
<svg version="1.0" xmlns="http://www.w3.org/2000/svg"
 width="654.000000pt" height="382.000000pt" viewBox="0 0 654.000000 382.000000"
 preserveAspectRatio="xMidYMid meet">

<g transform="translate(0.000000,382.000000) scale(0.100000,-0.100000)"
fill="#000000" stroke="none">
<path d="M742 3413 l3 -68 520 0 520 0 0 65 0 65 -523 3 -523 2 3 -67z"/>
<path d="M1944 3467 c-3 -8 -4 -39 -2 -68 l3 -54 733 -3 c430 -1 732 2 732 7
0 15 -90 68 -165 98 l-70 28 -613 3 c-520 2 -613 1 -618 -11z"/>
<path d="M3730 3410 l0 -70 439 0 c242 0 442 3 444 8 3 4 -5 34 -18 67 l-22
60 -421 3 -422 2 0 -70z"/>
<path d="M5257 3418 c-14 -35 -22 -66 -18 -71 4 -4 200 -6 437 -5 l429 3 0 65
0 65 -411 3 -412 2 -25 -62z"/>
<path d="M848 3192 l-108 -3 0 -64 0 -65 525 0 525 0 0 65 c0 36 -3 65 -7 66
-28 2 -849 3 -935 1z"/>
<path d="M1953 3193 c-9 -3 -13 -27 -13 -69 l0 -64 831 0 830 0 -6 23 c-3 12
-13 41 -21 65 l-16 42 -161 1 c-656 5 -1434 6 -1444 2z"/>
<path d="M3743 3194 c-9 -4 -13 -28 -13 -70 l0 -64 490 0 c399 0 490 2 490 13
0 7 -7 36 -15 64 -11 38 -21 52 -38 56 -30 6 -899 7 -914 1z"/>
<path d="M5209 3193 c-34 -4 -38 -8 -58 -62 -11 -32 -21 -61 -21 -65 0 -3 221
-6 490 -6 l490 0 0 65 0 65 -167 0 c-93 0 -287 2 -433 4 -146 2 -281 2 -301
-1z"/>
<path d="M1050 2840 l0 -70 218 2 217 3 0 65 0 65 -217 3 -218 2 0 -70z"/>
<path d="M2245 2887 c-4 -13 -5 -43 -3 -68 l3 -44 220 0 220 0 0 65 0 65 -217
3 -218 2 -5 -23z"/>
<path d="M3140 2840 l0 -70 221 0 220 0 15 35 c7 19 14 50 14 70 l0 35 -235 0
-235 0 0 -70z"/>
<path d="M4034 2896 c-3 -7 -4 -38 -2 -67 l3 -54 380 -3 c209 -1 385 0 392 2
13 5 -1 61 -29 114 l-11 22 -364 0 c-299 0 -365 -2 -369 -14z"/>
<path d="M5073 2898 c-12 -16 -43 -99 -43 -116 0 -9 87 -12 393 -10 l392 3 0
65 0 65 -366 3 c-286 2 -368 -1 -376 -10z"/>
<path d="M1050 2550 l0 -70 218 2 217 3 3 68 3 67 -221 0 -220 0 0 -70z"/>
<path d="M2246 2604 c-3 -9 -6 -33 -6 -54 0 -76 -52 -70 581 -70 l569 0 42 38
c55 48 77 74 78 90 0 9 -132 12 -629 12 -564 0 -629 -2 -635 -16z"/>
<path d="M4034 2606 c-3 -7 -4 -38 -2 -67 l3 -54 218 -3 217 -2 0 30 c0 38 18
39 31 0 l11 -29 409 -1 410 0 19 32 20 33 6 -33 7 -32 216 2 216 3 3 68 3 67
-423 -2 -423 -3 -17 -50 c-9 -27 -22 -50 -28 -50 -7 0 -21 24 -32 53 l-19 52
-420 0 c-346 0 -421 -2 -425 -14z"/>
<path d="M1063 2333 c-9 -3 -13 -27 -13 -69 l0 -64 220 0 221 0 -3 68 -3 67
-205 2 c-113 1 -211 -1 -217 -4z"/>
<path d="M2251 2326 c-7 -8 -11 -36 -9 -68 l3 -53 633 -3 c453 -1 632 1 632 9
0 6 -24 36 -54 67 l-55 57 -569 3 c-489 2 -571 1 -581 -12z"/>
<path d="M4043 2333 c-9 -3 -13 -27 -13 -69 l0 -64 220 0 221 0 -3 68 -3 67
-205 2 c-113 1 -211 -1 -217 -4z"/>
<path d="M4576 2331 c-3 -4 4 -36 17 -70 l22 -61 314 2 314 3 19 59 c16 48 17
61 6 67 -17 11 -685 11 -692 0z"/>
<path d="M5382 2331 c-9 -5 -12 -26 -10 -67 l3 -59 223 -3 222 -2 0 64 c0 49
-4 65 -16 70 -24 9 -407 7 -422 -3z"/>
<path d="M1050 1980 l0 -70 220 0 221 0 -3 68 -3 67 -217 3 -218 2 0 -70z"/>
<path d="M2252 2038 c-13 -13 -16 -96 -4 -116 7 -9 58 -12 223 -10 l214 3 0
65 0 65 -210 3 c-155 2 -214 -1 -223 -10z"/>
<path d="M3147 2043 c-4 -3 -7 -35 -7 -70 l0 -63 235 0 235 0 0 34 c0 40 -16
87 -33 98 -15 9 -421 11 -430 1z"/>
<path d="M4034 2037 c-3 -8 -4 -39 -2 -68 l3 -54 218 -3 218 -2 -3 67 -3 68
-213 3 c-174 2 -213 0 -218 -11z"/>
<path d="M4680 2033 c0 -10 9 -40 19 -68 l19 -50 208 0 208 0 23 59 c12 32 20
63 17 67 -3 5 -115 9 -250 9 -226 0 -244 -1 -244 -17z"/>
<path d="M5374 2037 c-3 -8 -4 -39 -2 -68 l3 -54 220 0 220 0 0 65 0 65 -218
3 c-178 2 -218 0 -223 -11z"/>
<path d="M755 1737 c-4 -13 -5 -43 -3 -68 l3 -44 518 -3 517 -2 2 32 c1 32 1
86 -1 101 -1 4 -233 7 -516 7 l-515 0 -5 -23z"/>
<path d="M1944 1746 c-3 -7 -4 -38 -2 -67 l3 -54 805 0 805 0 17 35 c9 19 18
49 20 65 l3 30 -823 3 c-690 2 -823 0 -828 -12z"/>
<path d="M3735 1728 c-4 -28 -4 -52 4 -100 0 -5 165 -8 366 -8 l365 0 0 70 0
70 -365 0 -364 0 -6 -32z"/>
<path d="M4783 1738 c9 -39 33 -98 44 -109 6 -6 52 -9 108 -7 l99 3 22 62 c11
35 19 65 16 68 -3 3 -70 5 -150 5 l-144 0 5 -22z"/>
<path d="M5374 1746 c-3 -7 -4 -38 -2 -67 l3 -54 370 0 370 0 0 65 0 65 -368
3 c-305 2 -368 0 -373 -12z"/>
<path d="M762 1468 c-15 -15 -16 -114 -1 -124 7 -4 239 -6 517 -5 382 1 508 5
514 14 12 19 9 102 -4 115 -17 17 -1009 17 -1026 0z"/>
<path d="M1947 1473 c-4 -3 -7 -35 -7 -70 0 -58 2 -63 23 -64 164 -5 1174 5
1212 12 84 15 235 90 235 116 0 10 -147 13 -728 13 -401 0 -732 -3 -735 -7z"/>
<path d="M3741 1466 c-7 -8 -11 -37 -9 -68 l3 -53 50 -5 c28 -3 193 -4 368 -2
l318 3 -3 67 -3 67 -356 3 c-299 2 -358 0 -368 -12z"/>
<path d="M4885 1469 c-9 -14 35 -121 47 -117 14 5 49 100 43 116 -5 15 -81 16
-90 1z"/>
<path d="M5377 1473 c-10 -9 -9 -133 1 -134 26 -5 656 -7 695 -2 l47 5 0 63
c0 48 -4 64 -16 69 -21 8 -719 8 -727 -1z"/>
<path d="M5600 775 l0 -365 54 0 c40 0 55 4 60 16 3 9 6 96 6 194 l0 179 26
20 c33 26 75 27 105 2 24 -19 24 -23 27 -215 l4 -196 54 0 54 0 0 208 c0 232
-6 257 -69 299 -59 40 -166 20 -189 -35 -4 -9 -9 44 -12 118 l-5 135 -57 3
-58 3 0 -366z"/>
<path d="M922 753 l3 -348 55 0 55 0 3 138 3 137 53 0 c51 0 54 -2 67 -32 7
-18 22 -55 34 -83 12 -27 30 -70 40 -95 25 -60 23 -59 88 -64 73 -6 73 -1 7
139 -66 141 -67 146 -31 167 85 48 105 244 33 329 -43 52 -74 59 -252 59
l-160 0 2 -347z m298 232 c29 -15 30 -18 30 -90 0 -99 -6 -105 -121 -105 l-89
0 0 98 c0 54 3 102 7 105 13 14 144 7 173 -8z"/>
<path d="M1800 929 c-47 -19 -91 -61 -113 -107 -19 -40 -22 -63 -21 -157 0
-98 3 -115 25 -154 14 -25 42 -58 63 -75 34 -28 46 -31 115 -34 87 -4 141 15
180 64 28 35 26 50 -6 79 l-28 24 -37 -37 c-33 -31 -44 -36 -87 -36 -28 0 -57
6 -67 15 -20 17 -44 70 -44 98 0 20 7 21 153 23 l152 3 3 43 c11 151 -79 263
-210 261 -29 0 -64 -5 -78 -10z m145 -115 c9 -14 19 -41 22 -60 l6 -34 -97 0
c-106 0 -109 3 -86 67 15 40 37 53 91 53 39 0 49 -4 64 -26z"/>
<path d="M2440 918 c-75 -38 -104 -143 -60 -215 26 -43 53 -59 126 -76 75 -18
101 -31 109 -57 9 -28 -18 -68 -51 -76 -35 -9 -95 11 -123 40 l-24 25 -33 -26
c-41 -31 -42 -42 -6 -75 47 -45 85 -58 165 -58 66 0 78 3 115 30 46 33 57 49
65 100 15 82 -33 161 -107 175 -97 19 -134 35 -140 59 -3 14 -2 36 4 50 8 23
15 26 57 26 31 0 59 -7 78 -20 38 -25 39 -25 71 5 33 30 27 46 -27 82 -59 39
-155 44 -219 11z"/>
<path d="M3115 921 c-88 -41 -130 -132 -123 -271 5 -102 34 -168 91 -214 34
-27 48 -31 116 -34 90 -5 142 15 185 70 l25 33 -31 32 -31 32 -38 -33 c-64
-58 -136 -57 -176 4 -28 41 -31 90 -5 91 9 0 80 0 156 -1 l139 -1 -6 80 c-9
113 -42 173 -119 212 -48 24 -130 25 -183 0z m155 -103 c24 -26 35 -61 26 -83
-8 -22 -174 -22 -182 0 -9 22 4 63 26 85 29 29 102 27 130 -2z"/>
<path d="M3795 924 c-41 -21 -85 -64 -85 -84 0 -14 42 -60 54 -60 3 0 18 14
34 30 25 24 39 30 75 30 57 0 77 -21 77 -83 l0 -47 -70 0 c-80 0 -126 -16
-163 -56 -52 -56 -47 -163 9 -220 32 -32 39 -34 99 -34 58 0 66 3 99 33 l35
33 18 -24 c13 -17 32 -27 68 -32 67 -10 75 -6 75 45 0 38 -3 44 -22 47 -23 3
-23 6 -28 170 -6 187 -11 202 -86 245 -48 28 -143 31 -189 7z m155 -343 c0
-42 -4 -53 -26 -70 -27 -21 -78 -27 -102 -13 -22 14 -27 78 -8 107 15 22 23
25 76 25 l60 0 0 -49z"/>
<path d="M5025 918 c-80 -47 -108 -121 -103 -272 4 -120 22 -164 86 -213 40
-30 50 -33 115 -33 89 0 141 26 175 87 l22 41 -33 21 c-19 12 -38 21 -42 21
-4 0 -22 -16 -39 -36 -27 -32 -38 -37 -75 -37 -30 0 -49 6 -64 22 -20 20 -22
32 -22 152 0 125 1 132 24 150 28 23 93 25 115 4 9 -9 22 -26 30 -37 15 -21
16 -21 56 -3 22 10 40 22 40 27 0 22 -33 69 -67 95 -30 23 -48 28 -107 31 -59
2 -77 -1 -111 -20z"/>
<path d="M4405 917 c-3 -7 -4 -125 -3 -262 l3 -250 55 0 55 0 5 183 c5 178 6
184 29 203 16 13 39 19 72 19 l49 0 0 60 0 60 -32 0 c-35 0 -98 -32 -98 -50 0
-5 -4 -10 -10 -10 -5 0 -10 14 -10 30 0 30 -1 30 -55 30 -36 0 -57 -5 -60 -13z"/>
</g>
</svg>
